<?xml version="1.0" encoding="utf-8"?>
<svg xmlns="http://www.w3.org/2000/svg" xmlns:xlink="http://www.w3.org/1999/xlink" version="1.1" id="Capa_1" x="0px" y="0px" viewBox="0 0 464 464" style="enable-background:new 0 0 464 464;">
<path style="fill:#00F2A9;" d="M424,104H40c-17.672,0-32,14.328-32,32v32h448v-32C456,118.328,441.672,104,424,104z"/>
<g>
	<path style="fill:#322153;" d="M104.088,96H104c-4.424,0-7.96,3.576-7.96,8c0,4.424,3.624,8,8.048,8s8-3.576,8-8   S108.504,96,104.088,96z"/>
	<path style="fill:#322153;" d="M72.088,96H72c-4.424,0-7.96,3.576-7.96,8c0,4.424,3.624,8,8.048,8s8-3.576,8-8S76.504,96,72.088,96   z"/>
	<path style="fill:#322153;" d="M40.088,96H40c-4.424,0-7.96,3.576-7.96,8c0,4.424,3.624,8,8.048,8s8-3.576,8-8S44.504,96,40.088,96   z"/>
	<path style="fill:#322153;" d="M464,136v-32c0-22.056-17.944-40-40-40H40C17.944,64,0,81.944,0,104v32v224   c0,22.056,17.944,40,40,40h384c22.056,0,40-17.944,40-40V136z M16,104c0-13.232,10.768-24,24-24h384c13.232,0,24,10.768,24,24v24   H16V104z M424,384H40c-13.232,0-24-10.768-24-24V144h432v216C448,373.232,437.232,384,424,384z"/>
	<path style="fill:#322153;" d="M200,352H40c-4.424,0-8,3.576-8,8s3.576,8,8,8h160c4.424,0,8-3.576,8-8S204.424,352,200,352z"/>
	<path style="fill:#322153;" d="M424,320H40c-4.424,0-8,3.576-8,8s3.576,8,8,8h384c4.424,0,8-3.576,8-8S428.424,320,424,320z"/>
	<path style="fill:#322153;" d="M424,160H40c-4.424,0-8,3.576-8,8v128c0,4.424,3.576,8,8,8h384c4.424,0,8-3.576,8-8V168   C432,163.576,428.424,160,424,160z M416,288H48V176h368V288z"/>
</g>
<g>
</g>
<g>
</g>
<g>
</g>
<g>
</g>
<g>
</g>
<g>
</g>
<g>
</g>
<g>
</g>
<g>
</g>
<g>
</g>
<g>
</g>
<g>
</g>
<g>
</g>
<g>
</g>
<g>
</g>
</svg>
