<?xml version="1.0" encoding="utf-8"?>
<svg xmlns="http://www.w3.org/2000/svg" xmlns:xlink="http://www.w3.org/1999/xlink" version="1.1" id="Capa_1" x="0px" y="0px" viewBox="0 0 512 512" style="enable-background:new 0 0 512 512;">
<g>
	<path style="fill:#A4C2F7;" d="M273.067,8.533h98.944c16.047,0,29.056,13.009,29.056,29.056v436.821   c0,16.047-13.009,29.056-29.056,29.056h-98.944c-16.047,0-29.056-13.009-29.056-29.056V37.589   C244.011,21.542,257.019,8.533,273.067,8.533z"/>
	<path style="fill:#FFFFFF;" d="M148.523,8.533h98.944c16.047,0,29.056,13.009,29.056,29.056v436.821   c0,16.047-13.009,29.056-29.056,29.056h-98.944c-16.047,0-29.056-13.009-29.056-29.056V37.589   C119.467,21.542,132.475,8.533,148.523,8.533z"/>
	<path style="fill:#E3E7F2;" d="M174.123,8.533h163.755c16.047,0,29.056,13.009,29.056,29.056v436.821   c0,16.047-13.009,29.056-29.056,29.056H174.123c-16.047,0-29.056-13.009-29.056-29.056V37.589   C145.067,21.542,158.075,8.533,174.123,8.533z"/>
	
		<linearGradient id="SVGID_1_" gradientUnits="userSpaceOnUse" x1="-48.9139" y1="652.5052" x2="-47.6447" y2="651.6803" gradientTransform="matrix(221.8667 0 0 -341.3333 10967.5625 222811.4063)">
		<stop offset="0" style="stop-color:#D4E1F4"/>
		<stop offset="0.1717" style="stop-color:#D4E1F4"/>
		<stop offset="0.2" style="stop-color:#D4E1F4"/>
		<stop offset="0.2001" style="stop-color:#DAE4F4"/>
		<stop offset="0.2007" style="stop-color:#EBEBF4"/>
		<stop offset="0.2014" style="stop-color:#F6F1F4"/>
		<stop offset="0.2023" style="stop-color:#FDF4F4"/>
		<stop offset="0.205" style="stop-color:#FFF5F4"/>
		<stop offset="0.2522" style="stop-color:#FFF5F4"/>
		<stop offset="0.26" style="stop-color:#FFF5F4"/>
		<stop offset="0.26" style="stop-color:#D4E1F4"/>
		<stop offset="0.3974" style="stop-color:#D4E1F4"/>
		<stop offset="0.42" style="stop-color:#D4E1F4"/>
		<stop offset="0.4201" style="stop-color:#DAE4F4"/>
		<stop offset="0.4207" style="stop-color:#EBEBF4"/>
		<stop offset="0.4214" style="stop-color:#F6F1F4"/>
		<stop offset="0.4223" style="stop-color:#FDF4F4"/>
		<stop offset="0.425" style="stop-color:#FFF5F4"/>
		<stop offset="0.4894" style="stop-color:#FFF5F4"/>
		<stop offset="0.5" style="stop-color:#FFF5F4"/>
		<stop offset="0.5" style="stop-color:#F9F2F4"/>
		<stop offset="0.5001" style="stop-color:#E8EBF4"/>
		<stop offset="0.5003" style="stop-color:#DDE5F4"/>
		<stop offset="0.5005" style="stop-color:#D6E2F4"/>
		<stop offset="0.501" style="stop-color:#D4E1F4"/>
		<stop offset="0.7062" style="stop-color:#D4E1F4"/>
		<stop offset="0.74" style="stop-color:#D4E1F4"/>
		<stop offset="0.741" style="stop-color:#FFF5F4"/>
		<stop offset="0.8346" style="stop-color:#FFF5F4"/>
		<stop offset="0.85" style="stop-color:#FFF5F4"/>
		<stop offset="0.851" style="stop-color:#D4E1F4"/>
	</linearGradient>
	<rect x="145.067" y="59.733" style="fill:url(#SVGID_1_);" width="221.867" height="341.333"/>
	<circle style="fill:#A4C2F7;" cx="256" cy="452.267" r="25.6"/>
	<g>
		<path style="fill:#428DFF;" d="M363.475,512h-214.95c-20.751-0.026-37.566-16.841-37.592-37.592V37.592    C110.959,16.841,127.774,0.026,148.525,0h214.95c20.751,0.026,37.566,16.841,37.592,37.592v436.817    C401.041,495.159,384.226,511.974,363.475,512L363.475,512z M148.525,17.067c-11.33,0.013-20.512,9.195-20.525,20.525v436.817    c0.013,11.33,9.195,20.512,20.525,20.525h214.95c11.33-0.013,20.512-9.195,20.525-20.525V37.592    c-0.013-11.33-9.195-20.512-20.525-20.525H148.525z"/>
		<path style="fill:#428DFF;" d="M256,486.4c-18.851,0-34.133-15.282-34.133-34.133c0-18.851,15.282-34.133,34.133-34.133    c18.851,0,34.133,15.282,34.133,34.133C290.114,471.11,274.843,486.381,256,486.4L256,486.4z M256,435.2    c-9.426,0-17.067,7.641-17.067,17.067s7.641,17.067,17.067,17.067c9.426,0,17.067-7.641,17.067-17.067    C273.054,442.846,265.42,435.212,256,435.2L256,435.2z"/>
		<path style="fill:#428DFF;" d="M392.533,409.6H119.467c-4.713,0-8.533-3.821-8.533-8.533s3.821-8.533,8.533-8.533h273.067    c4.713,0,8.533,3.82,8.533,8.533S397.246,409.6,392.533,409.6z"/>
		<path style="fill:#428DFF;" d="M392.533,68.267H119.467c-4.713,0-8.533-3.821-8.533-8.533s3.821-8.533,8.533-8.533h273.067    c4.713,0,8.533,3.821,8.533,8.533S397.246,68.267,392.533,68.267z"/>
		<path style="fill:#428DFF;" d="M256,42.667h-34.133c-4.713,0-8.533-3.821-8.533-8.533s3.82-8.533,8.533-8.533H256    c4.713,0,8.533,3.821,8.533,8.533S260.713,42.667,256,42.667z"/>
		<path style="fill:#428DFF;" d="M290.133,42.667H281.6c-4.713,0-8.533-3.821-8.533-8.533s3.82-8.533,8.533-8.533h8.533    c4.713,0,8.533,3.821,8.533,8.533S294.846,42.667,290.133,42.667z"/>
		<path style="fill:#428DFF;" d="M477.058,181.267c-3.451-0.001-6.562-2.08-7.882-5.268c-1.32-3.188-0.591-6.858,1.849-9.298    c31.883-31.954,31.883-83.687,0-115.642c-2.156-2.155-2.997-5.297-2.209-8.242c0.789-2.944,3.089-5.244,6.033-6.033    c2.944-0.789,6.086,0.053,8.242,2.208c38.533,38.624,38.533,101.151,0,139.775C481.493,180.37,479.322,181.269,477.058,181.267    L477.058,181.267z"/>
		<path style="fill:#428DFF;" d="M441.125,164.2c-3.451-0.001-6.562-2.08-7.882-5.268c-1.32-3.188-0.591-6.858,1.849-9.298    c21.822-21.874,21.822-57.284,0-79.158c-3.332-3.332-3.332-8.735,0-12.067c3.332-3.332,8.735-3.332,12.067,0    c28.489,28.537,28.489,74.754,0,103.292C445.56,163.303,443.389,164.203,441.125,164.2L441.125,164.2z"/>
		<path style="fill:#428DFF;" d="M34.942,181.267c-2.264,0.003-4.435-0.897-6.033-2.5c-38.533-38.624-38.533-101.151,0-139.775    c2.156-2.155,5.297-2.997,8.242-2.208c2.944,0.789,5.244,3.089,6.033,6.033c0.789,2.944-0.053,6.086-2.209,8.242    c-31.883,31.954-31.883,83.687,0,115.642c2.44,2.44,3.169,6.11,1.849,9.298C41.503,179.187,38.393,181.266,34.942,181.267    L34.942,181.267z"/>
		<path style="fill:#428DFF;" d="M70.875,161.85c-2.264,0.003-4.435-0.897-6.033-2.5c-28.489-28.537-28.489-74.754,0-103.292    c3.332-3.332,8.735-3.332,12.067,0c3.332,3.332,3.332,8.735,0,12.067c-21.822,21.874-21.822,57.284,0,79.158    c2.44,2.44,3.169,6.11,1.849,9.298C77.437,159.77,74.326,161.849,70.875,161.85L70.875,161.85z"/>
	</g>
</g>
<g>
</g>
<g>
</g>
<g>
</g>
<g>
</g>
<g>
</g>
<g>
</g>
<g>
</g>
<g>
</g>
<g>
</g>
<g>
</g>
<g>
</g>
<g>
</g>
<g>
</g>
<g>
</g>
<g>
</g>
</svg>
